# xmcd CD database file
#
# Track frame offsets:
#	182
#	12057
#	25187
#	39077
#	53672
#	65387
#	79582
#	92247
#	101017
#	111807
#
# Disc length: 1622 seconds
#
# Revision: 4
# Processed by: cddbd v1.5.1PL2 Copyright (c) Steve Scherf et al.
# Submitted via: CDex 1.51
#
DISCID=6b06540a
DTITLE=Tennessee Ernie Ford - Greatest Hits
DYEAR=1993
DGENRE=Country
TTITLE0=Sixteen Tons
TTITLE1=Ballad Of Davey Crockett
TTITLE2=Mule Train
TTITLE3=The Cry Of The Wild Goose
TTITLE4=Shot Gun Boogie
TTITLE5=Mister And Mississippi
TTITLE6=That's All
TTITLE7=The Honeymoon's Over
TTITLE8=In The Middle Of An Island
TTITLE9=The Roving Gambler
EXTD=YEAR: 1993
EXTT0=
EXTT1=
EXTT2=
EXTT3=
EXTT4=
EXTT5=
EXTT6=
EXTT7=
EXTT8=
EXTT9=
PLAYORDER=
